# File created by Blade
# Date/Time:  Wed Apr 08 17:35:20 2015
#---------------------------------------------------------
:version 1.10
:name HOM
:units
  mass 1.0
  length 1.000000
  angle deg
:documentation
     Acclaim Skeleton File
:root
   axis xyz
   order TX TY TZ RX RY RZ
   position 0.000000 0.000000 0.000000
   orientation 0 0 0
:bonedata
   begin
      id 1
      name Spine_dum
      direction 0.000000 1.000000 0.000000
      length 5.893853
      axis 0.0 0.0 0.0 xyz
   end
   begin
      id 2
      name LeftUpLeg_dum
      direction 1.000000 0.000000 0.000000
      length 3.697939
      axis 0.0 0.0 0.0 xyz
   end
   begin
      id 3
      name RightUpLeg_dum
      direction -1.000000 0.000000 0.000000
      length 3.697939
      axis 0.0 0.0 0.0 xyz
   end
   begin
      id 4
      name Spine
      direction 0.000000 1.000000 0.000000
      length 0.000000
      axis 0.0 0.0 0.0 xyz
      dof rx ry rz
   end
   begin
      id 5
      name Spine_dum1
      direction 0.000000 1.000000 0.000000
      length 16.447146
      axis 0.0 0.0 0.0 xyz
   end
   begin
      id 6
      name Spine_dum2
      direction 0.000000 1.000000 0.000000
      length 10.900383
      axis 0.0 0.0 0.0 xyz
   end
   begin
      id 7
      name Spine_dum3
      direction 0.000000 1.000000 0.000000
      length 10.900383
      axis 0.0 0.0 0.0 xyz
   end
   begin
      id 8
      name Head
      direction 0.000000 1.000000 0.000000
      length 4.527550
      axis 0.0 0.0 0.0 xyz
      dof rx ry rz
   end
   begin
      id 9
      name LeftShoulder
      direction 1.000000 0.000000 0.000000
      length 8.219464
      axis 0.0 0.0 -90.0 xyz
      dof rx ry rz
   end
   begin
      id 10
      name LeftArm
      direction 1.000000 0.000000 0.000000
      length 11.094937
      axis 0.0 0.0 -90.0 xyz
      dof rx ry rz
   end
   begin
      id 11
      name LeftForeArm
      direction 1.000000 0.000000 0.000000
      length 9.103875
      axis 0.0 0.0 -90.0 xyz
      dof ry rz rx
   end
   begin
      id 12
      name LeftHand
      direction 0.000000 0.000000 0.000000
      length 0.000000
      axis 0.0 0.0 -90.0 xyz
      dof rx ry rz
   end
   begin
      id 13
      name LeftHand_dum1
      direction 0.000000 0.000000 0.000000
      length 0.000000
      axis 0.0 0.0 -90.0 xyz
   end
   begin
      id 14
      name LeftHand_dum2
      direction 1.000000 0.000000 0.000000
      length 3.937000
      axis 0.0 0.0 -90.0 xyz
   end
   begin
      id 15
      name LeftHandThumb1
      direction 0.000000 0.000000 1.000000
      length 3.937000
      axis 0.0 0.0 -90.0 xyz
      dof rx rz ry
   end
   begin
      id 16
      name RightShoulder
      direction -1.000000 0.000000 0.000000
      length 8.219464
      axis 0.0 0.0 90.0 xyz
      dof rx ry rz
   end
   begin
      id 17
      name RightArm
      direction -1.000000 0.000000 0.000000
      length 11.094937
      axis 0.0 0.0 90.0 xyz
      dof rx ry rz
   end
   begin
      id 18
      name RightForeArm
      direction -1.000000 0.000000 0.000000
      length 9.103875
      axis 0.0 0.0 90.0 xyz
      dof ry rz rx
   end
   begin
      id 19
      name RightHand
      direction 0.000000 0.000000 0.000000
      length 0.000000
      axis 0.0 0.0 90.0 xyz
      dof rx ry rz
   end
   begin
      id 20
      name RightHand_dum1
      direction 0.000000 0.000000 0.000000
      length 0.000000
      axis 0.0 0.0 90.0 xyz
   end
   begin
      id 21
      name RightHand_dum2
      direction -1.000000 0.000000 0.000000
      length 3.937000
      axis 0.0 0.0 90.0 xyz
   end
   begin
      id 22
      name RightHandThumb1
      direction 0.000000 0.000000 1.000000
      length 3.937000
      axis 0.0 0.0 90.0 xyz
      dof rx rz ry
   end
   begin
      id 23
      name LeftUpLeg
      direction 0.000000 -1.000000 0.000000
      length 16.181467
      axis 0.0 0.0 0.0 xyz
      dof rx ry rz
   end
   begin
      id 24
      name LeftLeg
      direction 0.000000 -1.000000 0.000000
      length 16.501392
      axis 0.0 0.0 0.0 xyz
      dof rx ry rz
   end
   begin
      id 25
      name LeftFoot
      direction 0.000000 -0.258819 0.965926
      length 6.408245
      axis 15.0 0.0 0.0 xyz
      dof rx ry rz
   end
   begin
      id 26
      name LeftToeBase
      direction 0.000000 0.000000 1.000000
      length 2.952750
      axis 0.0 0.0 0.0 xyz
      dof rx ry rz
   end
   begin
      id 27
      name RightUpLeg
      direction 0.000000 -1.000000 0.000000
      length 16.181467
      axis 0.0 0.0 0.0 xyz
      dof rx ry rz
   end
   begin
      id 28
      name RightLeg
      direction 0.000000 -1.000000 0.000000
      length 16.501392
      axis 0.0 0.0 0.0 xyz
      dof rx ry rz
   end
   begin
      id 29
      name RightFoot
      direction 0.000000 -0.258819 0.965926
      length 6.408245
      axis 15.0 0.0 0.0 xyz
      dof rx ry rz
   end
   begin
      id 30
      name RightToeBase
      direction 0.000000 0.000000 1.000000
      length 2.952750
      axis 0.0 0.0 0.0 xyz
      dof rx ry rz
   end
:hierarchy
   begin
      root Spine_dum LeftUpLeg_dum RightUpLeg_dum
      Spine_dum Spine
      LeftUpLeg_dum LeftUpLeg
      RightUpLeg_dum RightUpLeg
      Spine Spine_dum1 Spine_dum2 Spine_dum3
      Spine_dum1 Head
      Spine_dum2 LeftShoulder
      Spine_dum3 RightShoulder
      LeftShoulder LeftArm
      LeftArm LeftForeArm
      LeftForeArm LeftHand
      LeftHand LeftHand_dum1 LeftHand_dum2
      LeftHand_dum1 LeftHandThumb1
      RightShoulder RightArm
      RightArm RightForeArm
      RightForeArm RightHand
      RightHand RightHand_dum1 RightHand_dum2
      RightHand_dum1 RightHandThumb1
      LeftUpLeg LeftLeg
      LeftLeg LeftFoot
      LeftFoot LeftToeBase
      RightUpLeg RightLeg
      RightLeg RightFoot
      RightFoot RightToeBase
   end

# File created by Blade
# Date/Time:  Wed Apr 08 17:35:25 2015
# Frame Rate: 120.000 fps
#------------------------------------------------------
:FULLY-SPECIFIED
:DEGREES
1
root 8.288980 36.405223 -0.575565 -141.558946 -85.015096 167.673724
Spine -25.970374 -0.287600 -3.067097
Head 8.139539 12.468669 3.387663
LeftShoulder -5.210211 10.469644 32.575582
LeftArm 10.669364 -41.235005 -33.088441
LeftForeArm 21.438296 -0.000000 -0.053828
LeftHand -9.250845 -0.000000 -12.103712
LeftHandThumb1 -26.253704 0.000000 33.147579
RightShoulder -22.539615 -38.800347 -17.227355
RightArm 52.240263 54.084309 56.140345
RightForeArm 4.956160 -0.000000 -3.140526
RightHand -1.263383 -0.000000 13.846128
RightHandThumb1 -24.326973 -0.000000 -32.862282
LeftUpLeg -28.819856 14.614901 -2.146223
LeftLeg 12.496477 -0.000000 -0.000000
LeftFoot -9.147391 9.221218 -12.359638
LeftToeBase 7.643420 -0.000000 -0.000000
RightUpLeg -28.779360 -4.240771 -6.263419
RightLeg 10.819232 -0.000000 -0.000000
RightFoot -10.653132 -8.368252 20.032948
RightToeBase 11.056301 -0.000000 -0.000000
2
root 8.286383 36.405871 -0.577786 -141.544794 -85.005478 167.679622
Spine -26.005945 -0.267811 -3.081933
Head 8.129353 12.377489 3.392933
LeftShoulder -5.214757 10.464248 32.587801
LeftArm 10.718104 -41.210916 -33.118714
LeftForeArm 21.858758 0.000000 -0.073581
LeftHand -9.194432 0.000000 -12.000378
LeftHandThumb1 -26.253704 0.000000 33.147579
RightShoulder -22.534768 -38.792494 -17.221371
RightArm 52.192658 54.073999 56.054415
RightForeArm 4.961678 -0.000000 -3.155094
RightHand -1.236877 -0.000000 13.896654
RightHandThumb1 -24.326973 -0.000000 -32.862282
LeftUpLeg -28.830629 14.628659 -2.155180
LeftLeg 12.485940 -0.000000 -0.000000
LeftFoot -9.139711 9.212471 -12.358823
LeftToeBase 7.657088 -0.000000 -0.000000
RightUpLeg -28.789485 -4.220406 -6.270452
RightLeg 10.806148 -0.000000 -0.000000
RightFoot -10.654100 -8.381031 20.024168
RightToeBase 11.063599 -0.000000 -0.000000
3
root 8.282894 36.406357 -0.579549 -141.558106 -84.999803 167.697011
Spine -26.025806 -0.257758 -3.082803
Head 8.132706 12.308774 3.381745
LeftShoulder -5.208444 10.456237 32.587587
LeftArm 10.712894 -41.143942 -33.102845
LeftForeArm 22.228890 -0.000000 -0.081172
LeftHand -9.120835 -0.000000 -12.018568
LeftHandThumb1 -26.253704 0.000000 33.147579
RightShoulder -22.514787 -38.788826 -17.233881
RightArm 52.165023 54.065780 55.995897
RightForeArm 4.954633 -0.000000 -3.170652
RightHand -1.289700 -0.000000 13.934679
RightHandThumb1 -24.326973 -0.000000 -32.862282
LeftUpLeg -28.823076 14.645500 -2.160707
LeftLeg 12.471839 -0.000000 -0.000000
LeftFoot -9.124651 9.210517 -12.347118
LeftToeBase 7.637331 -0.000000 -0.000000
RightUpLeg -28.778274 -4.213328 -6.270028
RightLeg 10.785469 -0.000000 -0.000000
RightFoot -10.653342 -8.394148 20.026987
RightToeBase 11.051421 -0.000000 -0.000000
4
root 8.279038 36.406713 -0.582223 -141.546439 -85.002188 167.688539
Spine -26.040350 -0.254963 -3.087663
Head 8.127627 12.241598 3.384421
LeftShoulder -5.199456 10.470523 32.584979
LeftArm 10.706779 -41.070011 -33.070689
LeftForeArm 22.582077 -0.000000 -0.089692
LeftHand -9.002770 -0.000000 -12.220715
LeftHandThumb1 -26.253704 0.000000 33.147579
RightShoulder -22.498769 -38.772163 -17.235475
RightArm 52.132646 54.057167 55.929757
RightForeArm 4.967810 -0.000000 -3.196825
RightHand -1.304697 -0.000000 13.958227
RightHandThumb1 -24.326973 -0.000000 -32.862282
LeftUpLeg -28.816117 14.658902 -2.163096
LeftLeg 12.461678 -0.000000 -0.000000
LeftFoot -9.127349 9.207949 -12.346348
LeftToeBase 7.645521 -0.000000 -0.000000
RightUpLeg -28.765747 -4.215528 -6.264510
RightLeg 10.769747 -0.000000 -0.000000
RightFoot -10.652317 -8.386156 20.024592
RightToeBase 11.055062 -0.000000 -0.000000
5
root 8.274968 36.406967 -0.583709 -141.521634 -85.004004 167.667377
Spine -26.056756 -0.250985 -3.087886
Head 8.133502 12.186937 3.385862
LeftShoulder -5.189810 10.497466 32.583335
LeftArm 10.705150 -41.039904 -33.057125
LeftForeArm 22.762643 -0.000000 -0.081916
LeftHand -8.952206 -0.000000 -12.267471
LeftHandThumb1 -26.253704 0.000000 33.147579
RightShoulder -22.496739 -38.770928 -17.237536
RightArm 52.182797 54.071053 55.952250
RightForeArm 4.930254 -0.000000 -3.231849
RightHand -1.303951 -0.000000 13.951880
RightHandThumb1 -24.326973 -0.000000 -32.862282
LeftUpLeg -28.800693 14.654226 -2.158241
LeftLeg 12.437830 -0.000000 -0.000000
LeftFoot -9.122885 9.203420 -12.364292
LeftToeBase 7.667136 -0.000000 -0.000000
RightUpLeg -28.752692 -4.217146 -6.263679
RightLeg 10.752226 -0.000000 -0.000000
RightFoot -10.648998 -8.382732 20.025455
RightToeBase 11.016177 -0.000000 -0.000000
6
root 8.271454 36.407225 -0.586242 -141.513343 -85.005824 167.664377
Spine -26.068132 -0.257864 -3.084002
Head 8.121920 12.130697 3.379083
LeftShoulder -5.194874 10.518276 32.583552
LeftArm 10.696103 -41.044977 -33.049488
LeftForeArm 22.922436 -0.000000 -0.080082
LeftHand -8.874517 -0.000000 -12.370930
LeftHandThumb1 -26.253704 0.000000 33.147579
RightShoulder -22.499029 -38.759150 -17.242830
RightArm 52.276380 54.088622 56.030949
RightForeArm 4.898666 -0.000000 -3.250205
RightHand -1.291573 -0.000000 13.923113
RightHandThumb1 -24.326973 -0.000000 -32.862282
LeftUpLeg -28.792139 14.661189 -2.157253
LeftLeg 12.420788 -0.000000 -0.000000
LeftFoot -9.107022 9.195741 -12.356616
LeftToeBase 7.652265 -0.000000 -0.000000
RightUpLeg -28.744128 -4.211125 -6.261244
RightLeg 10.738407 -0.000000 -0.000000
RightFoot -10.650302 -8.397608 20.024462
RightToeBase 10.984427 -0.000000 -0.000000
7
root 8.267722 36.407641 -0.589054 -141.432412 -85.025814 167.601628
Spine -26.095644 -0.294744 -3.064728
Head 8.121174 12.111980 3.379761
LeftShoulder -5.208164 10.531155 32.580822
LeftArm 10.667122 -41.043522 -33.023805
LeftForeArm 22.993647 -0.000000 -0.097216
LeftHand -8.799212 -0.000000 -12.462566
LeftHandThumb1 -26.253704 0.000000 33.147579
RightShoulder -22.477416 -38.750320 -17.265420
RightArm 52.338473 54.099120 56.081021
RightForeArm 4.883094 -0.000000 -3.259661
RightHand -1.306037 -0.000000 13.912168
RightHandThumb1 -24.326973 -0.000000 -32.862282
LeftUpLeg -28.803928 14.649425 -2.151509
LeftLeg 12.413169 -0.000000 -0.000000
LeftFoot -9.096945 9.190460 -12.355454
LeftToeBase 7.634482 -0.000000 -0.000000
RightUpLeg -28.743154 -4.223634 -6.251244
RightLeg 10.722976 -0.000000 -0.000000
RightFoot -10.665977 -8.403286 20.039817
RightToeBase 11.044494 -0.000000 -0.000000
8
root 8.264361 36.407941 -0.591622 -141.466213 -85.033256 167.652233
Spine -26.120158 -0.310628 -3.049659
Head 8.119421 12.075497 3.386413
LeftShoulder -5.223291 10.556458 32.580628
LeftArm 10.676219 -41.091988 -33.027291
LeftForeArm 23.054399 -0.000000 -0.128116
LeftHand -8.777859 -0.000000 -12.509638
LeftHandThumb1 -26.253704 0.000000 33.147579
RightShoulder -22.458843 -38.761026 -17.290854
RightArm 52.390078 54.105474 56.142117
RightForeArm 4.888162 -0.000000 -3.252607
RightHand -1.303952 -0.000000 13.896583
RightHandThumb1 -24.326973 -0.000000 -32.862282
LeftUpLeg -28.807157 14.638541 -2.138849
LeftLeg 12.401138 -0.000000 -0.000000
LeftFoot -9.103226 9.203939 -12.372955
LeftToeBase 7.635576 -0.000000 -0.000000
RightUpLeg -28.743163 -4.222098 -6.239824
RightLeg 10.705472 -0.000000 -0.000000
RightFoot -10.661082 -8.412478 20.010317
RightToeBase 11.038162 -0.000000 -0.000000
9
root 8.260754 36.408009 -0.594423 -141.479888 -85.035047 167.674158
Spine -26.130304 -0.320717 -3.045011
Head 8.106657 12.037455 3.394100
LeftShoulder -5.228705 10.557061 32.572194
LeftArm 10.648930 -41.131510 -32.987057
LeftForeArm 23.101800 -0.000000 -0.153949
LeftHand -8.768199 0.000000 -12.585506
LeftHandThumb1 -26.253704 0.000000 33.147579
RightShoulder -22.454657 -38.766352 -17.297567
RightArm 52.402571 54.088000 56.143352
RightForeArm 4.932710 -0.000000 -3.245509
RightHand -1.286270 0.000000 13.850486
RightHandThumb1 -24.326973 -0.000000 -32.862282
LeftUpLeg -28.807127 14.653411 -2.140060
LeftLeg 12.393015 -0.000000 -0.000000
LeftFoot -9.101740 9.193968 -12.358461
LeftToeBase 7.640858 -0.000000 -0.000000
RightUpLeg -28.738819 -4.217982 -6.234383
RightLeg 10.694692 -0.000000 -0.000000
RightFoot -10.665685 -8.412637 20.010928
RightToeBase 11.057177 -0.000000 -0.000000
10
root 8.258226 36.408620 -0.597401 -141.447683 -85.060783 167.673621
Spine -26.166725 -0.357205 -3.023420
Head 8.098546 12.008256 3.401641
LeftShoulder -5.206209 10.469300 32.609399
LeftArm 10.490225 -41.114165 -32.922087
LeftForeArm 23.185134 0.000000 -0.137179
LeftHand -8.765281 -0.000000 -12.599565
LeftHandThumb1 -26.253704 0.000000 33.147579
RightShoulder -22.441919 -38.771661 -17.300634
RightArm 52.372642 54.062331 56.083005
RightForeArm 4.978628 0.000000 -3.242227
RightHand -1.284414 -0.000000 13.824288
RightHandThumb1 -24.326973 -0.000000 -32.862282
LeftUpLeg -28.827436 14.611345 -2.114891
LeftLeg 12.380424 -0.000000 -0.000000
LeftFoot -9.097697 9.208370 -12.376174
LeftToeBase 7.647265 -0.000000 -0.000000
RightUpLeg -28.751349 -4.228521 -6.215960
RightLeg 10.678740 -0.000000 -0.000000
RightFoot -10.673126 -8.425816 20.033131
RightToeBase 11.048618 -0.000000 -0.000000
11
root 8.256462 36.408409 -0.597917 -141.455990 -85.052084 167.685858
Spine -26.160648 -0.358712 -3.019323
Head 8.078892 11.985623 3.397552
LeftShoulder -5.205998 10.431080 32.601239
LeftArm 10.399705 -41.099764 -32.851584
LeftForeArm 23.182215 -0.000000 -0.122507
LeftHand -8.800255 -0.000000 -12.589135
LeftHandThumb1 -26.253704 0.000000 33.147579
RightShoulder -22.445401 -38.771802 -17.298777
RightArm 52.378677 54.051142 56.068484
RightForeArm 4.985947 -0.000000 -3.229882
RightHand -1.261710 -0.000000 13.812453
RightHandThumb1 -24.326973 -0.000000 -32.862282
LeftUpLeg -28.822829 14.623196 -2.120271
LeftLeg 12.371071 -0.000000 -0.000000
LeftFoot -9.096496 9.196573 -12.395187
LeftToeBase 7.659691 -0.000000 -0.000000
RightUpLeg -28.762582 -4.226871 -6.218168
RightLeg 10.693772 -0.000000 -0.000000
RightFoot -10.676301 -8.417506 20.030319
RightToeBase 11.016510 -0.000000 -0.000000
